<svg xmlns="http://www.w3.org/2000/svg" viewBox="0 0 64 64" role="img" aria-labelledby="title">
  <title>SnapCharts Icon</title>
  <defs>
    <linearGradient id="bg" x1="0%" x2="100%" y1="0%" y2="100%">
      <stop offset="0%" stop-color="#2563eb" />
      <stop offset="100%" stop-color="#06b6d4" />
    </linearGradient>
  </defs>
  <rect width="64" height="64" rx="14" fill="url(#bg)" />
  <rect
    x="14"
    y="17"
    width="36"
    height="30"
    rx="4"
    fill="none"
    stroke="#f8fafc"
    stroke-width="2.5"
    opacity="0.94"
  />
  <rect x="18" y="33" width="8" height="10" fill="#7dd3fc" rx="1.2" />
  <rect x="28" y="27" width="8" height="16" fill="#60a5fa" rx="1.2" />
  <rect x="38" y="21" width="8" height="22" fill="#a5f3fc" rx="1.2" />
  <path
    d="M18 35L26 30L34 31L42 24L50 19"
    fill="none"
    stroke="#ffffff"
    stroke-width="3"
    stroke-linecap="round"
    stroke-linejoin="round"
  />
  <circle cx="50" cy="19" r="4.8" fill="#ffffff" />
  <path
    d="M47.4 19C47.4 20.8 48.9 22.3 50.7 22.3C52.5 22.3 54 20.8 54 19C54 17.2 52.5 15.7 50.7 15.7C48.9 15.7 47.4 17.2 47.4 19Z"
    fill="#09090b"
  />
</svg>
